<svg width="36" height="38" viewBox="0 0 36 38" fill="none" xmlns="http://www.w3.org/2000/svg">
<rect x="0.5" y="1" width="35" height="35" fill="white"/>
<g clip-path="url(#clip0_68_1663)">
<path d="M31.4116 24.7641C31.4116 24.8196 31.4107 24.8761 31.4107 24.9324C31.4062 25.4115 31.3758 25.8853 31.3204 26.3527C31.1836 27.5187 30.894 28.6416 30.4721 29.7002C30.4524 29.7494 30.4328 29.7987 30.4122 29.8479C30.3916 29.8963 30.371 29.9455 30.3514 29.9947C30.3299 30.0431 30.3093 30.0923 30.2879 30.1407C30.2772 30.1639 30.2664 30.1872 30.2566 30.2114C30.2432 30.2409 30.2298 30.2705 30.2164 30.3001C30.1949 30.3475 30.1726 30.3959 30.1502 30.4442C28.3526 34.2609 24.794 37.0988 20.5157 37.7982C20.4594 37.8071 20.4031 37.8161 20.3468 37.8242C20.1332 37.8555 19.9177 37.8824 19.7014 37.9039C19.317 37.9407 18.9282 37.9603 18.534 37.963C11.3425 38.0052 5.5 32.1781 5.5 24.9835C5.5 24.868 5.50178 24.7525 5.50445 24.6379C5.50623 24.5805 5.50801 24.5233 5.51068 24.4659C5.51247 24.4238 5.51425 24.3817 5.51692 24.3396C5.52858 24.096 5.54817 23.8543 5.57506 23.6142C5.58673 23.5058 5.60008 23.3974 5.61442 23.2901C5.64033 23.1002 5.67069 22.9112 5.70471 22.7232C5.71539 22.6686 5.72527 22.613 5.73685 22.5575C5.75653 22.4554 5.77799 22.3533 5.80034 22.2522C5.81013 22.2092 5.82001 22.1662 5.8307 22.1232C5.91921 21.7444 6.02561 21.3719 6.14804 21.0056C6.16505 20.9537 6.18295 20.9017 6.20164 20.8498C6.21598 20.8068 6.23112 20.7647 6.24723 20.7217C6.27938 20.6312 6.31339 20.5417 6.34821 20.4521C6.36432 20.4091 6.38124 20.367 6.39825 20.3249C6.42594 20.255 6.45452 20.1852 6.48408 20.1154C6.50732 20.0599 6.53145 20.0043 6.55558 19.9488C6.57971 19.8933 6.60384 19.8386 6.62886 19.7841C6.65745 19.7213 6.68701 19.6587 6.71559 19.5969C6.73794 19.5504 6.76029 19.5038 6.78353 19.4572C6.81033 19.4026 6.83713 19.3488 6.86402 19.2951C6.89171 19.2414 6.91851 19.1877 6.94719 19.1348C6.97488 19.0811 7.00257 19.0283 7.03213 18.9754C7.06071 18.9226 7.08938 18.8697 7.11886 18.8178C7.14477 18.7713 7.17157 18.7247 7.19837 18.679C7.35571 18.405 7.52373 18.1372 7.70163 17.8758C7.72932 17.8337 7.7579 17.7916 7.78747 17.7504C8.33632 16.9614 8.97011 16.2344 9.6754 15.5806C9.93825 15.3379 10.2108 15.1051 10.4924 14.883C14.8341 11.4603 16.8016 5.82655 15.5448 0.437331C15.4662 0.0997021 15.7728 0.00211549 15.9605 0.0460028C15.9694 0.0486789 15.9784 0.0513549 15.9873 0.054031C15.9917 0.055815 15.9971 0.057599 16.0016 0.058491C16.0624 0.0790967 16.1231 0.0988103 16.1831 0.120308C16.3404 0.174008 16.4968 0.231364 16.6515 0.290416C16.6962 0.307453 16.7409 0.325383 16.7847 0.342331C16.8383 0.363829 16.892 0.385327 16.9447 0.406824C16.9894 0.424754 17.0332 0.442683 17.077 0.461416C17.128 0.482913 17.178 0.504411 17.2281 0.525909C17.2844 0.550082 17.3408 0.575148 17.397 0.600214C17.5258 0.657571 17.6536 0.716623 17.7805 0.777547C17.8368 0.804397 17.8932 0.832139 17.9486 0.85997C18.0559 0.912777 18.1631 0.967458 18.2695 1.02294C18.324 1.05158 18.3777 1.07932 18.4313 1.10893C18.4965 1.1439 18.5609 1.17878 18.6252 1.21553C19.0105 1.42863 19.3885 1.65877 19.7605 1.90417C19.8257 1.94716 19.8901 1.99016 19.9545 2.03404C20.4622 2.37881 20.9574 2.7531 21.4384 3.15255C21.4983 3.20179 21.5572 3.25192 21.6163 3.30214C21.8048 3.46244 21.9917 3.6263 22.1759 3.79471C22.234 3.84841 22.2921 3.9022 22.3502 3.9559C22.6497 4.23439 22.9429 4.52367 23.2308 4.82276C23.2799 4.87468 23.3299 4.92668 23.3792 4.97949C23.4418 5.04577 23.5043 5.11205 23.566 5.17921C23.6143 5.23202 23.6625 5.28492 23.7108 5.33773C23.7662 5.39865 23.8207 5.45859 23.8752 5.52041C23.936 5.58847 23.9959 5.65653 24.0558 5.72549C24.0978 5.77383 24.1399 5.82307 24.1819 5.87142C24.2409 5.94037 24.299 6.00933 24.3571 6.07828C24.4098 6.14188 24.4626 6.20459 24.5145 6.2681C24.5672 6.3317 24.62 6.39619 24.6709 6.4606C24.7201 6.52063 24.7683 6.58147 24.8157 6.64239C24.8469 6.68004 24.8765 6.71759 24.906 6.75612C24.948 6.80804 24.9891 6.86094 25.0293 6.91464C25.0633 6.95852 25.0972 7.00241 25.1303 7.0463C25.2312 7.17885 25.3305 7.3123 25.4297 7.44664C25.5298 7.58365 25.6291 7.72066 25.7265 7.85946C25.7739 7.92574 25.8194 7.99202 25.8659 8.05829C25.9133 8.12635 25.9607 8.1962 26.008 8.26515C26.0554 8.33411 26.1019 8.40395 26.1484 8.4738C26.1859 8.52839 26.2225 8.58396 26.2592 8.63944C26.9618 9.70603 27.6019 10.829 28.1731 11.9869C28.2401 12.123 28.3063 12.2592 28.3715 12.3962C28.6933 13.0705 28.991 13.7556 29.2645 14.4478C29.2949 14.5248 29.3253 14.6019 29.3548 14.6789C29.3852 14.7558 29.4147 14.8329 29.4433 14.9108C29.4728 14.9878 29.5015 15.0648 29.5301 15.1427C29.5586 15.2197 29.5873 15.2968 29.615 15.3746C29.7026 15.6173 29.7876 15.8609 29.8689 16.1045C29.8912 16.1725 29.9144 16.2397 29.9359 16.3078C29.9618 16.3856 29.9877 16.4636 30.0119 16.5415C30.0369 16.6202 30.0619 16.6982 30.086 16.7761C30.1522 16.9892 30.2166 17.2024 30.2773 17.4155C30.2889 17.4567 30.3005 17.497 30.3122 17.5372C30.3292 17.5964 30.3452 17.6554 30.3622 17.7146C30.3837 17.7933 30.4052 17.8722 30.4266 17.9501C30.4472 18.0279 30.4677 18.1068 30.4883 18.1847C30.5107 18.2671 30.5312 18.3494 30.5518 18.4318C30.5876 18.5742 30.6224 18.7166 30.6573 18.859C30.6779 18.9477 30.6985 19.0364 30.719 19.125C30.7529 19.2773 30.787 19.4286 30.8191 19.5809C30.82 19.5853 30.8209 19.5898 30.8218 19.5943C30.8548 19.7502 30.8862 19.9051 30.9165 20.06C31.0229 20.6071 31.1132 21.1525 31.1856 21.6934C31.1963 21.7713 31.2062 21.8484 31.216 21.9254C31.2195 21.9558 31.2231 21.9854 31.2266 22.0158C31.2445 22.1573 31.2607 22.2979 31.2749 22.4384C31.2838 22.5172 31.2919 22.5961 31.299 22.6739C31.3143 22.8307 31.3285 22.9874 31.3402 23.1423C31.3517 23.2937 31.3625 23.445 31.3714 23.5955C31.3768 23.6859 31.3821 23.7764 31.3858 23.8659C31.3893 23.9331 31.392 24.0012 31.3956 24.0683V24.0728C31.3982 24.1462 31.4009 24.2196 31.4036 24.2922V24.3111C31.4053 24.3836 31.4071 24.4561 31.4089 24.5287C31.4107 24.6074 31.4116 24.6862 31.4116 24.7641Z" fill="url(#paint0_radial_68_1663)"/>
<path d="M25.5433 30.6393C24.7768 34.4074 21.0849 36.9018 17.3351 36.0799C13.6153 35.2646 11.273 31.5741 12.1078 27.8576C12.5371 25.9466 13.7624 24.4112 15.3554 23.4872C18.0507 21.9237 19.723 19.1475 20.1475 16.0564C20.1482 16.0512 20.149 16.0489 20.1499 16.0494C24.6395 18.4908 26.5724 25.58 25.5433 30.6393Z" fill="url(#paint1_radial_68_1663)"/>
<path d="M31.4116 24.7641C31.4116 24.8196 31.4107 24.8761 31.4107 24.9324C31.4045 25.4124 31.3731 25.8871 31.3177 26.3545C31.1792 27.5204 30.8913 28.6434 30.4721 29.7002C30.4524 29.7494 30.4328 29.7987 30.4122 29.8479C30.3916 29.8963 30.371 29.9455 30.3514 29.9947C30.3299 30.0431 30.3093 30.0923 30.2879 30.1407C30.2772 30.1639 30.2664 30.1872 30.2566 30.2114C30.2432 30.2409 30.2298 30.2705 30.2164 30.3001C30.1949 30.3475 30.1726 30.3959 30.1502 30.4442C28.357 34.2663 24.8101 37.1033 20.5157 37.7982C20.4594 37.8071 20.4031 37.8161 20.3468 37.8242C20.1332 37.8564 19.9177 37.8824 19.7014 37.9039C19.317 37.9407 18.9282 37.9603 18.534 37.963C11.3425 38.0052 5.5 32.1781 5.5 24.9835C5.5 24.868 5.50178 24.7525 5.50445 24.6379C5.50623 24.5805 5.50801 24.5233 5.51068 24.4659C5.51247 24.4238 5.51425 24.3817 5.51692 24.3396C5.52858 24.096 5.54817 23.8543 5.57506 23.6142C5.58673 23.5058 5.60008 23.3974 5.61442 23.2901C5.64033 23.1002 5.67069 22.9112 5.70471 22.7232C5.71539 22.6686 5.72527 22.613 5.73685 22.5575C5.75653 22.4554 5.77799 22.3533 5.80034 22.2522C5.81013 22.2092 5.82001 22.1662 5.8307 22.1232C5.91921 21.7444 6.02561 21.3719 6.14804 21.0056C6.16505 20.9537 6.18295 20.9017 6.20164 20.8498C6.21598 20.8068 6.23112 20.7647 6.24723 20.7217C6.27938 20.6312 6.31339 20.5417 6.34821 20.4521C6.36432 20.4091 6.38124 20.367 6.39825 20.3249C6.42594 20.255 6.45452 20.1852 6.48408 20.1154C6.50732 20.0599 6.53145 20.0043 6.55558 19.9488C6.57971 19.8933 6.60384 19.8386 6.62886 19.7841C6.65745 19.7213 6.68701 19.6587 6.71559 19.5969C6.73794 19.5504 6.76029 19.5038 6.78353 19.4572C6.81033 19.4026 6.83713 19.3488 6.86402 19.2951C6.89171 19.2414 6.91851 19.1877 6.94719 19.1348C6.97488 19.0811 7.00257 19.0283 7.03213 18.9754C7.06071 18.9226 7.08938 18.8697 7.11886 18.8178C7.14477 18.7713 7.17157 18.7247 7.19837 18.679C7.35571 18.405 7.52373 18.1372 7.70163 17.8758C7.72932 17.8337 7.7579 17.7916 7.78747 17.7504C8.33632 16.9614 8.97011 16.2344 9.6754 15.5806C9.93825 15.3379 10.2108 15.1051 10.4924 14.883C14.8341 11.4603 16.8016 5.82655 15.5448 0.437331C15.4662 0.0997021 15.7728 0.00211549 15.9605 0.0460028C15.9694 0.0486789 15.9784 0.0513549 15.9873 0.054031C15.9917 0.055815 15.9971 0.057599 16.0016 0.058491C16.0624 0.0790967 16.1231 0.0988103 16.1831 0.120308C16.3404 0.174008 16.4968 0.231364 16.6515 0.290416C16.6962 0.307453 16.7409 0.325383 16.7847 0.342331C16.8383 0.363829 16.892 0.385327 16.9447 0.406824C16.9894 0.424754 17.0332 0.442683 17.077 0.461416C17.128 0.482913 17.178 0.504411 17.2281 0.525909C17.2844 0.550082 17.3408 0.575148 17.397 0.600214C17.5258 0.657571 17.6536 0.716623 17.7805 0.777547C17.8368 0.804397 17.8932 0.832139 17.9486 0.85997C18.0559 0.912777 18.1631 0.967458 18.2695 1.02294C18.324 1.05158 18.3777 1.07932 18.4313 1.10893C18.4965 1.1439 18.5609 1.17878 18.6252 1.21553C19.0105 1.42863 19.3885 1.65877 19.7605 1.90417C19.8257 1.94716 19.8901 1.99016 19.9545 2.03404C20.4622 2.37881 20.9574 2.7531 21.4384 3.15255C21.4983 3.20179 21.5572 3.25192 21.6163 3.30214C21.8048 3.46244 21.9917 3.6263 22.1759 3.79471C22.234 3.84841 22.2921 3.9022 22.3502 3.9559C22.6497 4.23439 22.9429 4.52367 23.2308 4.82276C23.2799 4.87468 23.3299 4.92668 23.3792 4.97949C23.4418 5.04577 23.5043 5.11205 23.566 5.17921C23.6143 5.23202 23.6625 5.28492 23.7108 5.33773C23.7662 5.39865 23.8207 5.45859 23.8752 5.52041C23.936 5.58847 23.9959 5.65653 24.0558 5.72549C24.0978 5.77383 24.1399 5.82307 24.1819 5.87142C24.2409 5.94037 24.299 6.00933 24.3571 6.07828C24.4098 6.14188 24.4626 6.20459 24.5145 6.2681C24.5672 6.3317 24.62 6.39619 24.6709 6.4606C24.7201 6.52063 24.7683 6.58147 24.8157 6.64239C24.8469 6.68004 24.8765 6.71759 24.906 6.75612C24.948 6.80804 24.9891 6.86094 25.0293 6.91464C25.0633 6.95852 25.0972 7.00241 25.1303 7.0463C25.2312 7.17885 25.3305 7.3123 25.4297 7.44664C25.5298 7.58365 25.6291 7.72066 25.7265 7.85946C25.7739 7.92574 25.8194 7.99202 25.8659 8.05829C25.9133 8.12635 25.9607 8.1962 26.008 8.26515C26.0554 8.33411 26.1019 8.40395 26.1484 8.4738C26.1859 8.52839 26.2225 8.58396 26.2592 8.63944C26.9618 9.70603 27.6019 10.829 28.1731 11.9869C28.2401 12.123 28.3063 12.2592 28.3715 12.3962C28.6933 13.0705 28.991 13.7556 29.2645 14.4478C29.2949 14.5248 29.3253 14.6019 29.3548 14.6789C29.3852 14.7558 29.4147 14.8329 29.4433 14.9108C29.4728 14.9878 29.5015 15.0648 29.5301 15.1427C29.5586 15.2197 29.5873 15.2968 29.615 15.3746C29.7026 15.6173 29.7876 15.8609 29.8689 16.1045C29.8912 16.1725 29.9144 16.2397 29.9359 16.3078C29.9618 16.3856 29.9877 16.4636 30.0119 16.5415C30.0369 16.6202 30.0619 16.6982 30.086 16.7761C30.1522 16.9892 30.2157 17.2024 30.2773 17.4155C30.2889 17.4567 30.3005 17.497 30.3122 17.5372C30.3292 17.5964 30.3452 17.6554 30.3622 17.7146C30.3837 17.7933 30.4052 17.8722 30.4266 17.9501C30.4472 18.0279 30.4677 18.1068 30.4883 18.1847C30.5107 18.2671 30.5312 18.3494 30.5518 18.4318C30.5876 18.5742 30.6224 18.7166 30.6573 18.859C30.6779 18.9477 30.6985 19.0364 30.719 19.125C30.7529 19.2773 30.787 19.4286 30.8191 19.5809C30.82 19.5853 30.8209 19.5898 30.8218 19.5943C30.8548 19.7502 30.8862 19.9051 30.9165 20.06C31.0229 20.6071 31.1132 21.1525 31.1856 21.6934C31.1963 21.7713 31.2062 21.8484 31.216 21.9254C31.2195 21.9558 31.2231 21.9854 31.2266 22.0158C31.2445 22.1573 31.2607 22.2979 31.2749 22.4384C31.2838 22.5172 31.2919 22.5961 31.299 22.6739C31.3143 22.8307 31.3285 22.9874 31.3402 23.1423C31.3517 23.2937 31.3625 23.445 31.3714 23.5955C31.3768 23.6859 31.3821 23.7764 31.3858 23.8659C31.3893 23.9331 31.392 24.0012 31.3956 24.0683V24.0728C31.3982 24.1462 31.4009 24.2196 31.4036 24.2922V24.3111C31.4053 24.3505 31.4062 24.3898 31.4071 24.4292C31.408 24.4623 31.4089 24.4955 31.4089 24.5286C31.4107 24.6074 31.4116 24.6862 31.4116 24.7641Z" fill="url(#paint2_radial_68_1663)"/>
<path d="M28.4667 24.0899C28.1911 29.88 23.2647 34.4478 17.4895 34.0886C11.7606 33.7322 7.42287 28.7747 7.81198 23.0458C8.01215 20.0998 9.48462 17.5297 11.6453 15.7856C15.3012 12.8345 17.6655 7.94709 17.5874 3.24428C17.5874 3.24392 17.5876 3.24258 17.5882 3.24035C17.6752 2.91289 18.037 2.74136 18.3476 2.87543C25.2222 5.84139 28.8267 16.5244 28.4667 24.0899Z" fill="url(#paint3_linear_68_1663)"/>
</g>
<defs>
<radialGradient id="paint0_radial_68_1663" cx="0" cy="0" r="1" gradientUnits="userSpaceOnUse" gradientTransform="translate(4.84345 -0.0702333) scale(37.6861 37.7542)">
<stop stop-color="#FFCF42"/>
<stop offset="0.262" stop-color="#FFCD42"/>
<stop offset="0.408" stop-color="#FFC540"/>
<stop offset="0.525" stop-color="#FFB73E"/>
<stop offset="0.628" stop-color="#FFA33A"/>
<stop offset="0.72" stop-color="#FF8A35"/>
<stop offset="0.805" stop-color="#FF6A30"/>
<stop offset="0.885" stop-color="#FF4529"/>
<stop offset="0.958" stop-color="#FF1B21"/>
<stop offset="1" stop-color="#FF001C"/>
</radialGradient>
<radialGradient id="paint1_radial_68_1663" cx="0" cy="0" r="1" gradientUnits="userSpaceOnUse" gradientTransform="translate(19.8612 20.5675) scale(14.1421 14.1677)">
<stop stop-color="#FFB500" stop-opacity="0"/>
<stop offset="0.109" stop-color="#FCAD01" stop-opacity="0.109"/>
<stop offset="0.281" stop-color="#F49605" stop-opacity="0.281"/>
<stop offset="0.496" stop-color="#E8710B" stop-opacity="0.496"/>
<stop offset="0.744" stop-color="#D63D13" stop-opacity="0.744"/>
<stop offset="1" stop-color="#C1001C"/>
</radialGradient>
<radialGradient id="paint2_radial_68_1663" cx="0" cy="0" r="1" gradientUnits="userSpaceOnUse" gradientTransform="translate(15.0136 11.9447) scale(25.0958 25.1411)">
<stop stop-color="#F9C6A0" stop-opacity="0"/>
<stop offset="0.014" stop-color="#F9C69E" stop-opacity="0"/>
<stop offset="0.02" stop-color="#FAC797" stop-opacity="0"/>
<stop offset="0.023" stop-color="#FAC88C" stop-opacity="0"/>
<stop offset="0.026" stop-color="#FBCA7B" stop-opacity="0"/>
<stop offset="0.029" stop-color="#FDCC65" stop-opacity="0"/>
<stop offset="0.031" stop-color="#FECE4A" stop-opacity="0"/>
<stop offset="0.032" stop-color="#FFCF42" stop-opacity="0"/>
<stop offset="0.408" stop-color="#FFCD42" stop-opacity="0.389"/>
<stop offset="0.543" stop-color="#FFC640" stop-opacity="0.529"/>
<stop offset="0.64" stop-color="#FFBB3E" stop-opacity="0.628"/>
<stop offset="0.718" stop-color="#FFAA3B" stop-opacity="0.709"/>
<stop offset="0.785" stop-color="#FF9437" stop-opacity="0.778"/>
<stop offset="0.845" stop-color="#FF7832" stop-opacity="0.839"/>
<stop offset="0.898" stop-color="#FF582C" stop-opacity="0.895"/>
<stop offset="0.947" stop-color="#FF3225" stop-opacity="0.946"/>
<stop offset="0.991" stop-color="#FF091E" stop-opacity="0.991"/>
<stop offset="1" stop-color="#FF001C"/>
</radialGradient>
<linearGradient id="paint3_linear_68_1663" x1="23.258" y1="16.2346" x2="46.4593" y2="2.79014" gradientUnits="userSpaceOnUse">
<stop offset="0.0001" stop-color="#E7EEED" stop-opacity="0"/>
<stop offset="1" stop-color="#E7EEED"/>
</linearGradient>
<clipPath id="clip0_68_1663">
<rect width="26" height="38" fill="white" transform="translate(5.5)"/>
</clipPath>
</defs>
</svg>
