<svg width="36" height="36" viewBox="0 0 36 36" fill="none" xmlns="http://www.w3.org/2000/svg">
<rect x="0.5" y="0.5" width="35" height="35" fill="white"/>
<g clip-path="url(#clip0_68_1569)">
<path d="M22.7581 26.0074L21.1033 29.5313C20.5726 30.6614 19.932 31.7229 19.1977 32.7017L17.6201 27.7553L19.2306 24.2717C19.5539 23.5715 20.2181 23.151 20.9204 23.12C21.2316 23.1062 21.5505 23.1686 21.8502 23.3178C22.8229 23.8007 23.2298 25.0041 22.7581 26.0074Z" fill="url(#paint0_linear_68_1569)"/>
<path d="M25.9444 25.1226L23.7969 28.3502C22.5636 30.203 21.0173 31.7824 19.2509 33.0266L18.5252 28.6007C19.1717 28.0315 19.7464 27.3714 20.231 26.6332L22.2914 23.4956L22.7088 22.8598C23.3171 21.9333 24.542 21.692 25.4372 22.3228C26.3287 22.951 26.5564 24.2037 25.9444 25.1226Z" fill="url(#paint1_linear_68_1569)"/>
<path d="M28.5603 21.9412C27.7222 21.2314 26.4814 21.3605 25.7967 22.2285L23.0078 25.7621C21.9226 27.1378 20.5072 28.1718 18.922 28.7804L19.2584 33.1263C22.0237 32.0196 24.4955 30.1957 26.4139 27.7964L28.8277 24.7764C29.5151 23.9166 29.3953 22.6477 28.5603 21.9412Z" fill="url(#paint2_linear_68_1569)"/>
<path d="M31.9023 22.277C31.1217 21.5005 29.8748 21.5269 29.1254 22.3358L26.0727 25.6283C25.0205 26.7638 23.7306 27.6099 22.319 28.1193C22.5123 27.7384 22.5823 27.2906 22.4829 26.8435C22.4804 26.8321 22.4712 26.7909 22.4712 26.7909C22.2327 25.8007 21.267 25.1867 20.2962 25.417L19.1218 25.6957C18.0103 25.9594 16.8746 26.057 15.7488 25.9911C15.0649 25.9511 14.3923 25.7885 13.7627 25.5098C13.1435 25.2358 12.5451 24.9072 11.9745 24.5261C10.657 23.6457 9.14071 23.1983 7.61753 23.1983C7.25741 23.1983 6.61224 23.358 5.89865 23.5764C3.88147 24.1935 2.5 26.1121 2.5 28.2859V28.4146C2.5 31.2233 4.70347 33.5003 7.42153 33.5003H12.1151L17.0671 33.4116C21.6922 33.3293 26.0969 31.3594 29.3109 27.9367L31.9501 25.1251C32.7017 24.3249 32.6802 23.05 31.9023 22.277Z" fill="url(#paint3_linear_68_1569)"/>
<path d="M22.4712 26.7911C22.2326 25.8008 21.2669 25.1868 20.2961 25.4172L19.1217 25.6958C16.7947 26.2479 14.3619 26.0724 12.1352 25.1916C12.1096 25.1815 12.0839 25.1715 12.0583 25.1616C9.16721 24.053 7.13397 28.1338 9.68586 29.9227L9.9668 30.1197L12.4648 30.1794C14.9368 30.2385 17.4063 29.9792 19.8163 29.4074L21.084 29.1067C22.0644 28.874 22.7079 27.8568 22.4827 26.8437C22.4803 26.8322 22.4712 26.7911 22.4712 26.7911Z" fill="url(#paint4_linear_68_1569)"/>
<path d="M2.50282 28.2739C2.50153 28.3208 2.5 28.3676 2.5 28.4147C2.5 31.2234 4.70347 33.5003 7.42153 33.5003H12.1151L17.0671 33.4115C21.5379 33.332 25.8026 31.4884 28.9852 28.2739H2.50282Z" fill="url(#paint5_linear_68_1569)"/>
<path d="M7.58654 15.5023C9.6583 20.1813 13.4125 22.1117 16.7722 21.6213C17.0245 21.5844 17.2674 21.5347 17.5001 21.4728C16.9918 17.8283 14.261 14.4429 9.58707 13.5609C8.75001 13.403 7.95813 13.3756 7.22395 13.4523C7.04795 13.4707 6.95389 13.6257 7.00236 13.8173C7.14207 14.3694 7.33448 14.9332 7.58654 15.5023Z" fill="url(#paint6_linear_68_1569)"/>
<path d="M9.26405 14.0848C8.50422 13.8016 7.8054 13.6232 7.17422 13.5328C7.02293 13.5112 6.96587 13.6062 7.03981 13.7565C7.25287 14.1896 7.5141 14.6418 7.82846 15.1099C10.4125 18.958 14.0209 21.1249 16.8862 21.4363C17.1014 21.4597 17.3061 21.4717 17.5 21.4727C16.4565 18.6964 13.5068 15.6661 9.26405 14.0848Z" fill="url(#paint7_linear_68_1569)"/>
<path d="M9.587 13.5609C8.74994 13.403 7.95806 13.3756 7.22388 13.4523C7.14941 13.46 7.09082 13.4933 7.05029 13.5424L17.5 21.4728C16.9918 17.8283 14.2609 14.4429 9.587 13.5609Z" fill="url(#paint8_linear_68_1569)"/>
<path d="M13.2241 14.9468L11.1026 20.0961C12.8713 21.4078 14.8841 21.8969 16.7722 21.6213C17.0246 21.5844 17.2674 21.5347 17.5001 21.4728C17.1424 18.9086 15.6847 16.4728 13.2241 14.9468Z" fill="url(#paint9_linear_68_1569)"/>
<path d="M27.4135 15.5023C25.3417 20.1813 21.5875 22.1117 18.2278 21.6213C17.9755 21.5844 17.7326 21.5347 17.5 21.4728C18.0082 17.8283 20.7391 14.4429 25.413 13.5609C26.2501 13.403 27.0419 13.3756 27.7761 13.4523C27.9521 13.4707 28.0462 13.6257 27.9977 13.8173C27.8579 14.3694 27.6655 14.9332 27.4135 15.5023Z" fill="url(#paint10_linear_68_1569)"/>
<path d="M25.7359 14.0848C26.4958 13.8016 27.1946 13.6232 27.8258 13.5328C27.9771 13.5112 28.0341 13.6062 27.9602 13.7565C27.7471 14.1896 27.4859 14.6418 27.1715 15.1099C24.5875 18.958 20.9791 21.1249 18.1138 21.4363C17.8986 21.4597 17.6938 21.4717 17.5 21.4727C18.5435 18.6964 21.4932 15.6661 25.7359 14.0848Z" fill="url(#paint11_linear_68_1569)"/>
<path d="M25.413 13.5609C26.2501 13.403 27.0419 13.3756 27.7761 13.4523C27.8506 13.46 27.9092 13.4933 27.9497 13.5424L17.5 21.4728C18.0082 17.8283 20.7391 14.4429 25.413 13.5609Z" fill="url(#paint12_linear_68_1569)"/>
<path d="M21.7759 14.9468L23.8974 20.0961C22.1287 21.4078 20.1159 21.8969 18.2278 21.6213C17.9754 21.5844 17.7326 21.5347 17.5 21.4728C17.8576 18.9086 19.3154 16.4728 21.7759 14.9468Z" fill="url(#paint13_linear_68_1569)"/>
<path d="M13.9152 16.2415C13.9152 17.937 14.3234 19.2779 15.0326 20.4024C16.1923 22.2411 18.8076 22.2411 19.9673 20.4024C20.6765 19.2779 21.0847 17.937 21.0847 16.2415C21.0847 13.3093 19.8639 9.97356 17.9762 8.22596C17.7056 7.97546 17.2942 7.97546 17.0236 8.22596C15.136 9.97356 13.9152 13.3093 13.9152 16.2415Z" fill="url(#paint14_linear_68_1569)"/>
<path d="M15.2321 16.2415C15.2321 17.937 15.4904 19.2779 15.9391 20.4024C16.6727 22.2411 18.3273 22.2411 19.061 20.4024C19.5097 19.2779 19.7679 17.937 19.7679 16.2415C19.7679 13.3093 18.9956 9.97356 17.8014 8.22596C17.6302 7.97546 17.3699 7.97546 17.1987 8.22596C16.0044 9.97356 15.2321 13.3093 15.2321 16.2415Z" fill="url(#paint15_linear_68_1569)"/>
<path d="M19.9674 20.4024C20.6766 19.2779 21.0848 17.9371 21.0848 16.2415C21.0848 13.3093 19.864 9.97358 17.9763 8.22597C17.841 8.10069 17.6705 8.03809 17.5 8.03809V21.7814C18.4438 21.7814 19.3875 21.3218 19.9674 20.4024Z" fill="url(#paint16_linear_68_1569)"/>
<path d="M20.7563 6.76617C20.2085 6.53239 19.9476 5.88395 20.1739 5.3178L21.0256 3.1861C21.2518 2.61995 21.8793 2.35049 22.4272 2.58421C22.9751 2.81792 23.2359 3.46643 23.0097 4.03258L22.158 6.16428C21.9318 6.73043 21.3042 6.99995 20.7563 6.76617Z" fill="url(#paint17_linear_68_1569)"/>
<path d="M5.56568 9.82479C5.79192 9.25865 6.41945 8.98913 6.96733 9.22291L9.03027 10.103C9.57816 10.3367 9.83898 10.9852 9.61274 11.5514C9.38651 12.1175 8.75898 12.387 8.2111 12.1533L6.14816 11.2732C5.60027 11.0394 5.33951 10.3909 5.56568 9.82479Z" fill="url(#paint18_linear_68_1569)"/>
<path d="M25.3797 11.5328C25.1522 10.9672 25.4116 10.3181 25.9589 10.083L28.0199 9.19799C28.5672 8.96294 29.1954 9.23094 29.4229 9.79654C29.6503 10.3621 29.391 11.0112 28.8436 11.2463L26.7827 12.1313C26.2353 12.3664 25.6072 12.0984 25.3797 11.5328Z" fill="url(#paint19_linear_68_1569)"/>
<path d="M12.5453 2.59594C13.0927 2.36089 13.7208 2.62889 13.9483 3.19449L14.8048 5.32412C15.0322 5.88972 14.7729 6.53884 14.2255 6.77389C13.6782 7.00894 13.05 6.74095 12.8225 6.17535L11.9661 4.04571C11.7386 3.48011 11.9979 2.83099 12.5453 2.59594Z" fill="url(#paint20_linear_68_1569)"/>
</g>
<defs>
<linearGradient id="paint0_linear_68_1569" x1="18.0021" y1="26.055" x2="19.7986" y2="27.3462" gradientUnits="userSpaceOnUse">
<stop stop-color="#FFEEE6"/>
<stop offset="1" stop-color="#FFB09E"/>
</linearGradient>
<linearGradient id="paint1_linear_68_1569" x1="20.2319" y1="25.4542" x2="21.8229" y2="27.0058" gradientUnits="userSpaceOnUse">
<stop stop-color="#FFEEE6"/>
<stop offset="1" stop-color="#FFB09E"/>
</linearGradient>
<linearGradient id="paint2_linear_68_1569" x1="22.2033" y1="25.3692" x2="23.6566" y2="27.0599" gradientUnits="userSpaceOnUse">
<stop stop-color="#FFEEE6"/>
<stop offset="1" stop-color="#FFB09E"/>
</linearGradient>
<linearGradient id="paint3_linear_68_1569" x1="15.2049" y1="18.9814" x2="20.0427" y2="33.4578" gradientUnits="userSpaceOnUse">
<stop stop-color="#FFEEE6"/>
<stop offset="1" stop-color="#FFB09E"/>
</linearGradient>
<linearGradient id="paint4_linear_68_1569" x1="16.0065" y1="28.2066" x2="20.4043" y2="33.231" gradientUnits="userSpaceOnUse">
<stop stop-color="#FFDECF" stop-opacity="0"/>
<stop offset="1" stop-color="white"/>
</linearGradient>
<linearGradient id="paint5_linear_68_1569" x1="15.7426" y1="30.4778" x2="15.7426" y2="33.6685" gradientUnits="userSpaceOnUse">
<stop stop-color="#F89580" stop-opacity="0"/>
<stop offset="0.9972" stop-color="#C5715A"/>
</linearGradient>
<linearGradient id="paint6_linear_68_1569" x1="7.00686" y1="14.8198" x2="18.9555" y2="20.6517" gradientUnits="userSpaceOnUse">
<stop stop-color="#A2E62E"/>
<stop offset="0.1232" stop-color="#97DF30"/>
<stop offset="0.3396" stop-color="#7ACB36"/>
<stop offset="0.6236" stop-color="#4AAC3F"/>
<stop offset="0.9613" stop-color="#09804C"/>
<stop offset="1" stop-color="#017B4E"/>
</linearGradient>
<linearGradient id="paint7_linear_68_1569" x1="11.8669" y1="15.8955" x2="14.1478" y2="25.6" gradientUnits="userSpaceOnUse">
<stop stop-color="#017B4E" stop-opacity="0"/>
<stop offset="0.477" stop-color="#01754A" stop-opacity="0.477"/>
<stop offset="1" stop-color="#026841"/>
</linearGradient>
<linearGradient id="paint8_linear_68_1569" x1="12.1203" y1="15.5457" x2="12.5779" y2="21.6447" gradientUnits="userSpaceOnUse">
<stop stop-color="#017B4E" stop-opacity="0"/>
<stop offset="0.477" stop-color="#01754A" stop-opacity="0.477"/>
<stop offset="1" stop-color="#026841"/>
</linearGradient>
<linearGradient id="paint9_linear_68_1569" x1="12.9704" y1="17.9381" x2="16.6895" y2="19.6706" gradientUnits="userSpaceOnUse">
<stop stop-color="#017B4E" stop-opacity="0"/>
<stop offset="0.8532" stop-color="#026B43" stop-opacity="0.853"/>
<stop offset="1" stop-color="#026841"/>
</linearGradient>
<linearGradient id="paint10_linear_68_1569" x1="27.9964" y1="14.8255" x2="16.0477" y2="20.6575" gradientUnits="userSpaceOnUse">
<stop stop-color="#A2E62E"/>
<stop offset="0.1232" stop-color="#97DF30"/>
<stop offset="0.3396" stop-color="#7ACB36"/>
<stop offset="0.6236" stop-color="#4AAC3F"/>
<stop offset="0.9613" stop-color="#09804C"/>
<stop offset="1" stop-color="#017B4E"/>
</linearGradient>
<linearGradient id="paint11_linear_68_1569" x1="23.1307" y1="15.897" x2="20.8497" y2="25.6014" gradientUnits="userSpaceOnUse">
<stop stop-color="#017B4E" stop-opacity="0"/>
<stop offset="0.477" stop-color="#01754A" stop-opacity="0.477"/>
<stop offset="1" stop-color="#026841"/>
</linearGradient>
<linearGradient id="paint12_linear_68_1569" x1="22.8773" y1="15.5471" x2="22.4196" y2="21.6462" gradientUnits="userSpaceOnUse">
<stop stop-color="#017B4E" stop-opacity="0"/>
<stop offset="0.477" stop-color="#01754A" stop-opacity="0.477"/>
<stop offset="1" stop-color="#026841"/>
</linearGradient>
<linearGradient id="paint13_linear_68_1569" x1="22.0328" y1="17.944" x2="18.3137" y2="19.6764" gradientUnits="userSpaceOnUse">
<stop stop-color="#017B4E" stop-opacity="0"/>
<stop offset="0.8532" stop-color="#026B43" stop-opacity="0.853"/>
<stop offset="1" stop-color="#026841"/>
</linearGradient>
<linearGradient id="paint14_linear_68_1569" x1="14.8835" y1="12.5027" x2="20.628" y2="18.5453" gradientUnits="userSpaceOnUse">
<stop stop-color="#A2E62E"/>
<stop offset="0.1232" stop-color="#97DF30"/>
<stop offset="0.3396" stop-color="#7ACB36"/>
<stop offset="0.6236" stop-color="#4AAC3F"/>
<stop offset="0.9613" stop-color="#09804C"/>
<stop offset="1" stop-color="#017B4E"/>
</linearGradient>
<linearGradient id="paint15_linear_68_1569" x1="14.8061" y1="12.4336" x2="26.3888" y2="23.2046" gradientUnits="userSpaceOnUse">
<stop stop-color="#017B4E" stop-opacity="0"/>
<stop offset="0.477" stop-color="#01754A" stop-opacity="0.477"/>
<stop offset="1" stop-color="#026841"/>
</linearGradient>
<linearGradient id="paint16_linear_68_1569" x1="18.7359" y1="14.3311" x2="14.7178" y2="23.1924" gradientUnits="userSpaceOnUse">
<stop stop-color="#017B4E" stop-opacity="0"/>
<stop offset="0.477" stop-color="#01754A" stop-opacity="0.477"/>
<stop offset="1" stop-color="#026841"/>
</linearGradient>
<linearGradient id="paint17_linear_68_1569" x1="20.6304" y1="4.26826" x2="23.4106" y2="5.38059" gradientUnits="userSpaceOnUse">
<stop stop-color="#FEE97D"/>
<stop offset="0.1454" stop-color="#FEE673"/>
<stop offset="0.3904" stop-color="#FDDF59"/>
<stop offset="0.7025" stop-color="#FBD32F"/>
<stop offset="1" stop-color="#FAC600"/>
</linearGradient>
<linearGradient id="paint18_linear_68_1569" x1="7.96183" y1="9.58456" x2="6.75779" y2="12.403" gradientUnits="userSpaceOnUse">
<stop stop-color="#FEE97D"/>
<stop offset="0.1454" stop-color="#FEE673"/>
<stop offset="0.3904" stop-color="#FDDF59"/>
<stop offset="0.7025" stop-color="#FBD32F"/>
<stop offset="1" stop-color="#FAC600"/>
</linearGradient>
<linearGradient id="paint19_linear_68_1569" x1="27.1594" y1="9.78135" x2="28.3696" y2="12.5965" gradientUnits="userSpaceOnUse">
<stop stop-color="#FEE97D"/>
<stop offset="0.1454" stop-color="#FEE673"/>
<stop offset="0.3904" stop-color="#FDDF59"/>
<stop offset="0.7025" stop-color="#FBD32F"/>
<stop offset="1" stop-color="#FAC600"/>
</linearGradient>
<linearGradient id="paint20_linear_68_1569" x1="14.3227" y1="4.49515" x2="11.545" y2="5.61347" gradientUnits="userSpaceOnUse">
<stop stop-color="#FEE97D"/>
<stop offset="0.1454" stop-color="#FEE673"/>
<stop offset="0.3904" stop-color="#FDDF59"/>
<stop offset="0.7025" stop-color="#FBD32F"/>
<stop offset="1" stop-color="#FAC600"/>
</linearGradient>
<clipPath id="clip0_68_1569">
<rect width="30" height="31" fill="white" transform="translate(2.5 2.5)"/>
</clipPath>
</defs>
</svg>
